<svg xmlns="http://www.w3.org/2000/svg" viewBox="0 0 100 100" data-craft="ringed-disc" data-view="side" role="img" aria-label="Ringed disc"><path class="hull" fill="currentColor" fill-rule="evenodd" d="M54.5 65.2L57.5 65.0L63.6 61.1L67.3 55.2L68.4 50.9L92.0 50.5L92.3 49.8L68.4 49.1L67.3 44.8L63.6 38.9L57.5 35.0L54.8 35.0L54.3 34.5L42.5 35.0L38.0 37.7L36.4 38.9L33.2 43.9L31.6 49.1L7.7 49.8L8.0 50.5L31.6 50.9L32.7 55.2L36.4 61.1L41.6 64.5L45.7 65.5L54.5 65.2Z"/><g class="lights" fill="var(--glyph-light, currentColor)"><circle class="light" cx="91.1" cy="50.0" r="0.9"/><circle class="light" cx="89.7" cy="50.0" r="0.9"/><circle class="light" cx="85.6" cy="50.0" r="0.9"/><circle class="light" cx="79.1" cy="50.0" r="0.9"/><circle class="light" cx="70.6" cy="50.0" r="0.9"/><circle class="light" cx="60.6" cy="50.0" r="0.9"/><circle class="light" cx="50.0" cy="50.0" r="0.9"/><circle class="light" cx="39.4" cy="50.0" r="0.9"/><circle class="light" cx="29.4" cy="50.0" r="0.9"/><circle class="light" cx="20.9" cy="50.0" r="0.9"/><circle class="light" cx="14.4" cy="50.0" r="0.9"/><circle class="light" cx="10.3" cy="50.0" r="0.9"/><circle class="light" cx="8.9" cy="50.0" r="0.9"/><circle class="light" cx="10.3" cy="50.0" r="0.9"/><circle class="light" cx="14.4" cy="50.0" r="0.9"/><circle class="light" cx="20.9" cy="50.0" r="0.9"/><circle class="light" cx="29.4" cy="50.0" r="0.9"/><circle class="light" cx="39.4" cy="50.0" r="0.9"/><circle class="light" cx="50.0" cy="50.0" r="0.9"/><circle class="light" cx="60.6" cy="50.0" r="0.9"/><circle class="light" cx="70.6" cy="50.0" r="0.9"/><circle class="light" cx="79.1" cy="50.0" r="0.9"/><circle class="light" cx="85.6" cy="50.0" r="0.9"/><circle class="light" cx="89.7" cy="50.0" r="0.9"/></g></svg>